<svg xmlns="http://www.w3.org/2000/svg" xmlns:xlink="http://www.w3.org/1999/xlink" viewBox="0 0 197.15 150.54"><defs><style>.cls-1{fill:none;}.cls-2{isolation:isolate;}.cls-3{fill:url(#linear-gradient);}.cls-4{fill:url(#linear-gradient-2);}.cls-21,.cls-28,.cls-29,.cls-30,.cls-31,.cls-5{mix-blend-mode:screen;}.cls-5{fill:url(#linear-gradient-3);}.cls-6{fill:url(#linear-gradient-4);}.cls-7{fill:url(#linear-gradient-5);}.cls-8{fill:url(#linear-gradient-6);}.cls-9{fill:#a179aa;}.cls-10{clip-path:url(#clip-path);}.cls-11{fill:url(#linear-gradient-7);}.cls-12{fill:url(#linear-gradient-8);}.cls-13{fill:url(#linear-gradient-9);}.cls-14{fill:url(#linear-gradient-10);}.cls-15{clip-path:url(#clip-path-2);}.cls-16{fill:url(#linear-gradient-11);}.cls-17{fill:url(#linear-gradient-12);}.cls-18{fill:url(#linear-gradient-13);}.cls-19{fill:url(#linear-gradient-14);}.cls-20{fill:url(#linear-gradient-15);}.cls-21{fill:url(#linear-gradient-16);}.cls-22{fill:url(#linear-gradient-17);}.cls-23{fill:url(#linear-gradient-18);}.cls-24{font-size:15px;}.cls-24,.cls-25,.cls-26,.cls-27{fill:#54320d;}.cls-24,.cls-25{font-family:Montserrat-Medium, Montserrat;font-weight:500;}.cls-25{font-size:12.7px;}.cls-26{font-size:20px;font-family:Bebas;}.cls-28,.cls-29,.cls-30,.cls-31{opacity:0.4;}.cls-28{fill:url(#radial-gradient);}.cls-29{fill:url(#radial-gradient-2);}.cls-30{fill:url(#radial-gradient-3);}.cls-31{fill:url(#radial-gradient-4);}</style><linearGradient id="linear-gradient" x1="167.82" y1="51.88" x2="30.11" y2="102.02" gradientTransform="translate(158.14 -32.16) rotate(80.52)" gradientUnits="userSpaceOnUse"><stop offset="0.13" stop-color="#b27a30"></stop><stop offset="0.29" stop-color="#f1bd50"></stop><stop offset="0.44" stop-color="#aa6e26"></stop><stop offset="1" stop-color="#cea252"></stop></linearGradient><linearGradient id="linear-gradient-2" x1="75.37" y1="3.16" x2="118.07" y2="143.36" gradientTransform="translate(37.82 -32.82) rotate(23.82)" gradientUnits="userSpaceOnUse"><stop offset="0.08" stop-color="#f1bd50"></stop><stop offset="0.16" stop-color="#fdf6a6"></stop><stop offset="0.29" stop-color="#f1bd50"></stop><stop offset="0.44" stop-color="#aa6e26"></stop><stop offset="0.48" stop-color="#f1bd50"></stop><stop offset="0.68" stop-color="#f1bd50"></stop><stop offset="0.77" stop-color="#f9db79"></stop><stop offset="1" stop-color="#cea252"></stop></linearGradient><linearGradient id="linear-gradient-3" x1="80.51" y1="13.51" x2="120.37" y2="144.4" gradientUnits="userSpaceOnUse"><stop offset="0" stop-color="#f4cd68"></stop><stop offset="0.1" stop-color="#f1bd50"></stop><stop offset="0.29" stop-color="#fdf6a6"></stop><stop offset="0.88" stop-color="#f1bd50"></stop></linearGradient><linearGradient id="linear-gradient-4" x1="77.5" y1="10.16" x2="115.94" y2="136.36" gradientTransform="translate(0.97 -1.26) rotate(0.75)" gradientUnits="userSpaceOnUse"><stop offset="0.09" stop-color="#593b6c"></stop><stop offset="0.29" stop-color="#8a5593"></stop><stop offset="0.63" stop-color="#593b6c"></stop></linearGradient><linearGradient id="linear-gradient-5" x1="77.26" y1="10.24" x2="100.54" y2="86.68" gradientTransform="matrix(1, 0, 0, 1, 0, 0)" xlink:href="#linear-gradient"></linearGradient><linearGradient id="linear-gradient-6" x1="-680.2" y1="76.67" x2="-646.54" y2="76.67" gradientTransform="translate(683.65)" gradientUnits="userSpaceOnUse"><stop offset="0" stop-color="#8a5593"></stop><stop offset="0.58" stop-color="#703a77"></stop><stop offset="0.83" stop-color="#5a2a6a"></stop><stop offset="0.99" stop-color="#502365"></stop></linearGradient><clipPath id="clip-path" transform="translate(1.06)"><path class="cls-1" d="M42,100.11c-11.21-.32-37.57,1.2-41.91,1.72L13.15,77,0,53.12c4.8-.58,41-3.58,42,.46C42.09,54.06,42,99.62,42,100.11Z"></path></clipPath><linearGradient id="linear-gradient-7" x1="21.46" y1="48.38" x2="25.72" y2="62.37" gradientTransform="matrix(1, -0.01, 0.01, 1, -2.36, 1.34)" xlink:href="#linear-gradient-3"></linearGradient><linearGradient id="linear-gradient-8" x1="29.63" y1="87" x2="33.97" y2="101.25" gradientTransform="matrix(1, -0.03, 0.03, 1, -10.29, 4.08)" xlink:href="#linear-gradient-3"></linearGradient><linearGradient id="linear-gradient-9" x1="23.15" y1="68.56" x2="27.65" y2="83.31" xlink:href="#linear-gradient-3"></linearGradient><linearGradient id="linear-gradient-10" x1="-573.92" y1="76.67" x2="-540.27" y2="76.67" gradientTransform="matrix(-1, 0, 0, 1, -382.33, 0)" xlink:href="#linear-gradient-6"></linearGradient><clipPath id="clip-path-2" transform="translate(1.06)"><path class="cls-1" d="M153,100.11c11.21-.32,37.57,1.2,41.91,1.72L181.89,77,195,53.12c-4.8-.58-40.95-3.58-42,.46C153,54.06,153,99.62,153,100.11Z"></path></clipPath><linearGradient id="linear-gradient-11" x1="127.73" y1="49.15" x2="131.99" y2="63.15" gradientTransform="matrix(-1, -0.01, -0.01, 1, 303.68, 1.34)" xlink:href="#linear-gradient-3"></linearGradient><linearGradient id="linear-gradient-12" x1="135.87" y1="89.89" x2="140.21" y2="104.14" gradientTransform="matrix(-1, -0.03, -0.03, 1, 311.61, 4.08)" xlink:href="#linear-gradient-3"></linearGradient><linearGradient id="linear-gradient-13" x1="128.37" y1="68.56" x2="132.87" y2="83.31" gradientTransform="matrix(-1, 0, 0, 1, 302.37, 0)" xlink:href="#linear-gradient-3"></linearGradient><linearGradient id="linear-gradient-14" x1="155.63" y1="53.85" x2="41.03" y2="95.57" gradientTransform="matrix(1, 0, 0, 1, 0, 0)" xlink:href="#linear-gradient"></linearGradient><linearGradient id="linear-gradient-15" x1="78.7" y1="13.31" x2="114.23" y2="129.98" gradientTransform="matrix(1, 0, 0, 1, 0, 0)" xlink:href="#linear-gradient-2"></linearGradient><linearGradient id="linear-gradient-16" x1="82.09" y1="21.92" x2="115.27" y2="130.84" xlink:href="#linear-gradient-3"></linearGradient><linearGradient id="linear-gradient-17" x1="80.98" y1="20.8" x2="114.15" y2="129.72" xlink:href="#linear-gradient-3"></linearGradient><linearGradient id="linear-gradient-18" x1="80.27" y1="19.2" x2="99.65" y2="82.81" gradientTransform="matrix(1, 0, 0, 1, 0, 0)" xlink:href="#linear-gradient"></linearGradient><radialGradient id="radial-gradient" cx="48.75" cy="42.96" r="18" gradientUnits="userSpaceOnUse"><stop offset="0.05" stop-color="#fdf6a6"></stop><stop offset="0.88" stop-color="#f1bd50" stop-opacity="0"></stop></radialGradient><radialGradient id="radial-gradient-2" cx="48.75" cy="42.96" r="11.81" xlink:href="#radial-gradient"></radialGradient><radialGradient id="radial-gradient-3" cx="124" cy="20.21" r="18" xlink:href="#radial-gradient"></radialGradient><radialGradient id="radial-gradient-4" cx="124" cy="20.21" r="11.81" xlink:href="#radial-gradient"></radialGradient></defs><g class="cls-2"><g id="Camada_2" data-name="Camada 2"><g id="OBJECTS"><circle class="cls-3" cx="98.06" cy="77.28" r="73.26" transform="translate(6.74 161.28) rotate(-80.52)"></circle><circle class="cls-4" cx="96.72" cy="73.26" r="73.26" transform="translate(-20.29 45.29) rotate(-23.82)"></circle><circle class="cls-5" cx="99.11" cy="74.6" r="65.94"></circle><circle class="cls-6" cx="96.72" cy="73.26" r="65.94" transform="translate(0.1 1.28) rotate(-0.75)"></circle><path class="cls-7" d="M33.46,78.62A65.94,65.94,0,0,1,157,46.5,65.94,65.94,0,1,0,39.13,105.38,65.64,65.64,0,0,1,33.46,78.62Z" transform="translate(1.06)"></path><path class="cls-8" d="M42,100.11c-11.21-.32-37.57,1.2-41.91,1.72L13.15,77,0,53.12c4.8-.58,41-3.58,42,.46C42.09,54.06,42,99.62,42,100.11Z" transform="translate(1.06)"></path><path class="cls-9" d="M0,53.12s2.63-.34,6.6-.68,9.28-.68,14.58-.88,10.63-.17,14.61.12a22,22,0,0,1,4.75.76,2.48,2.48,0,0,1,1.17.65.57.57,0,0,1,.11.45.58.58,0,0,0-.12-.44,2.39,2.39,0,0,0-1.17-.62,23.06,23.06,0,0,0-4.75-.66c-4-.27-9.28-.21-14.59,0C10.58,52.12,0,53.12,0,53.12Z" transform="translate(1.06)"></path><g class="cls-10"><path class="cls-11" d="M43.51,57.09c0-.05-1-1.32-11.55-1.53C23.22,55.39-.75,57-1,57l-.07-1c.25,0,24.25-1.58,33-1.41,5,.1,11.18.51,12.31,1.89a.75.75,0,0,1,.18.62l-1-.19A.36.36,0,0,0,43.51,57.09Z" transform="translate(1.06)"></path><path class="cls-12" d="M.82,98.24l-.07-1c.29,0,29.07-1.9,37.85-1.89,8.57,0,8.67.69,8.75,1.25s-.72,1-1.42,1.23l-.28-1,.33-.12a39.35,39.35,0,0,0-7.38-.4C29.86,96.36,1.11,98.22.82,98.24Z" transform="translate(1.06)"></path></g><polygon class="cls-13" points="24.59 67.87 26.89 72.53 32.03 73.27 28.31 76.9 29.19 82.01 24.59 79.6 20 82.01 20.88 76.9 17.16 73.27 22.3 72.53 24.59 67.87"></polygon><path class="cls-14" d="M153,100.11c11.21-.32,37.57,1.2,41.91,1.72L181.89,77,195,53.12c-4.8-.58-40.95-3.58-42,.46C153,54.06,153,99.62,153,100.11Z" transform="translate(1.06)"></path><path class="cls-9" d="M195,53.12s-10.58-1-21.19-1.31c-5.31-.2-10.62-.26-14.59,0a23.06,23.06,0,0,0-4.75.66,2.39,2.39,0,0,0-1.17.62.58.58,0,0,0-.12.44.57.57,0,0,1,.11-.45,2.48,2.48,0,0,1,1.17-.65,22,22,0,0,1,4.75-.76c4-.29,9.3-.28,14.61-.12s10.6.56,14.57.88S195,53.12,195,53.12Z" transform="translate(1.06)"></path><g class="cls-15"><path class="cls-16" d="M151.53,57.09c0-.05,1-1.32,11.55-1.53C171.82,55.39,195.79,57,196,57l.07-1c-.25,0-24.25-1.58-33-1.41-5,.1-11.18.51-12.3,1.89a.73.73,0,0,0-.19.62l1-.19A.36.36,0,0,1,151.53,57.09Z" transform="translate(1.06)"></path><path class="cls-17" d="M194.22,98.24l.07-1c-.29,0-29.07-1.9-37.85-1.89-8.57,0-8.67.69-8.75,1.25s.72,1,1.42,1.23l.28-1-.33-.12a39.35,39.35,0,0,1,7.38-.4C165.18,96.36,193.93,98.22,194.22,98.24Z" transform="translate(1.06)"></path></g><polygon class="cls-18" points="172.56 67.87 170.26 72.53 165.12 73.27 168.84 76.9 167.96 82.01 172.56 79.6 177.15 82.01 176.28 76.9 179.99 73.27 174.86 72.53 172.56 67.87"></polygon><path class="cls-19" d="M158.54,75a61,61,0,1,1-61-61A61,61,0,0,1,158.54,75Z" transform="translate(1.06)"></path><path class="cls-20" d="M157.43,71.64a61,61,0,1,1-61-61A61,61,0,0,1,157.43,71.64Z" transform="translate(1.06)"></path><path class="cls-21" d="M152.45,72.76A54.87,54.87,0,1,1,97.58,17.88,54.87,54.87,0,0,1,152.45,72.76Z" transform="translate(1.06)"></path><path class="cls-22" d="M151.34,71.64A54.88,54.88,0,1,1,96.46,16.77,54.88,54.88,0,0,1,151.34,71.64Z" transform="translate(1.06)"></path><path class="cls-23" d="M43.82,76.1A54.87,54.87,0,0,1,146.61,49.37a54.87,54.87,0,1,0-98.07,49A54.63,54.63,0,0,1,43.82,76.1Z" transform="translate(1.06)"></path><text class="cls-24" transform="translate(55.59 61.22)">GARANTIA</text><text class="cls-25" transform="translate(74.81 98.62)">7 DIAS</text><text class="cls-26" transform="translate(55.57 81.72)">PREMIUM</text><path class="cls-27" d="M91.11,39.71a33.06,33.06,0,0,1,11.82,0l3.11.57,2.73-10-6,3.28L97,26.43l-5.74,7.11-6-3.28,2.73,10Z" transform="translate(1.06)"></path><path class="cls-27" d="M106,41.93h-.1l-3.1-.56a32.52,32.52,0,0,0-11.64,0l-3.1.56a.54.54,0,1,1-.19-1.07l3.1-.56a33.32,33.32,0,0,1,12,0l3.1.56a.54.54,0,0,1-.1,1.08Z" transform="translate(1.06)"></path><polygon class="cls-27" points="98.08 107.95 99.99 111.82 104.26 112.44 101.17 115.46 101.9 119.72 98.08 117.7 94.25 119.72 94.98 115.46 91.89 112.44 96.16 111.82 98.08 107.95"></polygon><polygon class="cls-27" points="82.27 108.77 83.63 111.53 86.67 111.97 84.47 114.12 84.99 117.15 82.27 115.72 79.54 117.15 80.06 114.12 77.86 111.97 80.91 111.53 82.27 108.77"></polygon><polygon class="cls-27" points="113.89 108.77 115.25 111.53 118.29 111.97 116.09 114.12 116.61 117.15 113.89 115.72 111.16 117.15 111.68 114.12 109.48 111.97 112.52 111.53 113.89 108.77"></polygon><circle class="cls-28" cx="48.75" cy="42.96" r="18"></circle><circle class="cls-29" cx="48.75" cy="42.96" r="11.81"></circle><circle class="cls-30" cx="124" cy="20.21" r="18"></circle><circle class="cls-31" cx="124" cy="20.21" r="11.81"></circle></g></g></g></svg>